<?xml version="1.0" encoding="UTF-8" standalone="no"?>
<svg width="120px" height="120px" viewBox="0 0 120 120" version="1.1" xmlns="http://www.w3.org/2000/svg" xmlns:xlink="http://www.w3.org/1999/xlink" xmlns:sketch="http://www.bohemiancoding.com/sketch/ns">
    <!-- Generator: Sketch 3.3.3 (12081) - http://www.bohemiancoding.com/sketch -->
    <title>Artboard 7</title>
    <desc>Created with Sketch.</desc>
    <defs></defs>
    <g id="Page-1" stroke="none" stroke-width="1" fill="none" fill-rule="evenodd" sketch:type="MSPage">
        <g id="Artboard-7" sketch:type="MSArtboardGroup">
            <path d="M53.2605682,97.5980173 C67.5602336,97.5980173 59.4456132,87.9530375 59.4456132,78.0484284 C59.4456132,71.9918422 68.5911793,80.3309573 76.454487,83.000733 C81.450402,84.6969621 85.8766,81.6226129 87.2783159,79.0910188 C103.443609,49.8954 76.6025928,26.7018674 53.2605682,26.7018674 C29.9185435,26.7018674 10.9960938,42.5725112 10.9960938,62.1499423 C10.9960938,81.7273735 29.9185435,97.5980173 53.2605682,97.5980173 Z" id="Oval-10" stroke="#E0E0E0" stroke-width="5" sketch:type="MSShapeGroup"></path>
            <ellipse id="Oval-15" stroke="#E0E0E0" stroke-width="3" sketch:type="MSShapeGroup" cx="77.4853279" cy="70.4906659" rx="4.63878378" ry="4.17036176"></ellipse>
            <ellipse id="Oval-11" fill="#E0E0E0" sketch:type="MSShapeGroup" cx="31.6129105" cy="75.703618" rx="5.1542042" ry="5.21295219"></ellipse>
            <ellipse id="Oval-11-Copy" fill="#E0E0E0" sketch:type="MSShapeGroup" cx="26.4587063" cy="56.9369901" rx="5.1542042" ry="5.21295219"></ellipse>
            <ellipse id="Oval-11-Copy-2" fill="#E0E0E0" sketch:type="MSShapeGroup" cx="36.7671147" cy="42.340724" rx="5.1542042" ry="5.21295219"></ellipse>
            <ellipse id="Oval-11-Copy-3" fill="#E0E0E0" sketch:type="MSShapeGroup" cx="72.8465441" cy="51.724038" rx="5.1542042" ry="5.21295219"></ellipse>
            <ellipse id="Oval-11-Copy-4" fill="#E0E0E0" sketch:type="MSShapeGroup" cx="56.3530907" cy="41.2981336" rx="5.1542042" ry="5.21295219"></ellipse>
            <path d="M93.1898657,34.7074648 L111.419718,86.4661021 C111.785523,87.5047025 111.25119,88.6655979 110.210154,89.0652142 C109.176325,89.4620638 108.020626,88.9563561 107.62401,87.9231379 L88.0337793,36.888841 C84.4866661,36.6058944 83.3148495,30.9637527 83.3148495,30.9637527 C83.3148495,30.9637527 84.7914914,16.6557299 86.2579893,18.1130505 C86.8718741,18.7230937 86.1863018,23.4793896 88.0408749,25.3223569 C89.2515552,26.5254608 90.4519614,27.1862037 91.380706,27.8675605 C92.4279108,28.6358237 93.2106793,29.5571275 93.2106793,29.5571275 C93.2106793,29.5571275 94.8400747,31.0316645 94.4111139,32.6843666 C94.1979918,33.5054844 93.8194638,34.1396344 93.1898657,34.7074648 Z" id="Rectangle-10" stroke="#E0E0E0" stroke-width="3" sketch:type="MSShapeGroup"></path>
        </g>
    </g>
</svg>