<?xml version="1.0" encoding="UTF-8" standalone="no"?>
<svg width="120px" height="120px" viewBox="0 0 120 120" version="1.1" xmlns="http://www.w3.org/2000/svg" xmlns:xlink="http://www.w3.org/1999/xlink" xmlns:sketch="http://www.bohemiancoding.com/sketch/ns">
    <!-- Generator: Sketch 3.3.3 (12081) - http://www.bohemiancoding.com/sketch -->
    <title>Artboard 1 Copy 5</title>
    <desc>Created with Sketch.</desc>
    <defs></defs>
    <g id="Page-1" stroke="none" stroke-width="1" fill="none" fill-rule="evenodd" sketch:type="MSPage">
        <g id="Artboard-1-Copy-5" sketch:type="MSArtboardGroup" stroke="#E0E0E0">
            <g id="Group" sketch:type="MSLayerGroup" transform="translate(6.000000, 4.000000)">
                <path d="M64.875,87.0899532 L76.8768604,87.0899532 C82.3916863,87.0899532 86.875,82.6106325 86.875,77.0851105 L86.875,11.8798427 C86.875,6.35146673 82.3996173,1.87499995 76.8789529,1.87499995 L31.8710471,1.87499995 C26.3427132,1.87499995 21.875,6.35432062 21.875,11.8798427 L21.875,77.0851105 C21.875,82.6134864 26.3498866,87.0899532 31.8699389,87.0899532 L43.875,87.0899532 L43.875,96.995613 C43.875,97.5442577 43.426105,97.9976636 42.872365,97.9976636 L27.3762715,97.9976636 C25.158379,97.9976636 23.375,99.7905632 23.375,102.002217 L23.375,106.120447 C23.375,108.33557 25.164979,110.125 27.37303,110.125 L62.8733687,110.125 C63.9696187,110.125 65.767798,110.125 66.8691203,110.125 L83.1214486,110.125 C85.3418006,110.125 87.125,108.3321 87.125,106.120447 L87.125,103.000332 C87.125,100.236137 84.8894081,97.9976636 82.1316657,97.9976636 L65.8742613,97.9976636 C65.3194522,97.9976636 64.875,97.5490302 64.875,96.995613 L64.875,87.0899532 Z" id="Rectangle-5" stroke-width="5" sketch:type="MSShapeGroup"></path>
                <rect id="Rectangle-5-Copy" stroke-width="3" sketch:type="MSShapeGroup" x="32" y="11" width="45" height="65" rx="3"></rect>
                <path d="M98.1163923,8.75 L108.287075,0.75" id="Path-16" stroke-width="5" stroke-linecap="round" sketch:type="MSShapeGroup"></path>
                <path d="M97.9496598,41.75 L107.620145,42" id="Path-17" stroke-width="5" stroke-linecap="round" sketch:type="MSShapeGroup"></path>
                <path d="M98.2831248,70 L106.286285,79.75" id="Path-18" stroke-width="5" stroke-linecap="round" sketch:type="MSShapeGroup"></path>
                <path d="M10.4206825,8.75 L0.414043267,0.75" id="Path-16-Copy" stroke-width="5" stroke-linecap="round" sketch:type="MSShapeGroup"></path>
                <path d="M9.76450948,41.75 L0.25,42" id="Path-17-Copy" stroke-width="5" stroke-linecap="round" sketch:type="MSShapeGroup"></path>
                <path d="M9.76450948,71 L1.89043267,80.75" id="Path-18-Copy" stroke-width="5" stroke-linecap="round" sketch:type="MSShapeGroup"></path>
            </g>
        </g>
    </g>
</svg>