<?xml version="1.0" encoding="UTF-8" standalone="no"?>
<svg width="120px" height="120px" viewBox="0 0 120 120" version="1.1" xmlns="http://www.w3.org/2000/svg" xmlns:xlink="http://www.w3.org/1999/xlink" xmlns:sketch="http://www.bohemiancoding.com/sketch/ns">
    <!-- Generator: Sketch 3.3.3 (12081) - http://www.bohemiancoding.com/sketch -->
    <title>Artboard 7 Copy</title>
    <desc>Created with Sketch.</desc>
    <defs></defs>
    <g id="Page-1" stroke="none" stroke-width="1" fill="none" fill-rule="evenodd" sketch:type="MSPage">
        <g id="Artboard-7-Copy" sketch:type="MSArtboardGroup">
            <g id="Rectangle-11-+-Rectangle-12-+-Rectangle-12-Copy" sketch:type="MSLayerGroup" transform="translate(29.000000, 21.000000)">
                <rect id="Rectangle-11" stroke="#E0E0E0" stroke-width="4" sketch:type="MSShapeGroup" x="0" y="0" width="84" height="66" rx="2"></rect>
                <path d="M1.68,1.65 L83.16,1.65 L83.16,9.9 L1.68,9.9 L1.68,1.65 Z M3.36,3.82821432 C3.36,3.27612679 3.79926132,2.82857143 4.36811079,2.82857143 L5.71188921,2.82857143 C6.26865343,2.82857143 6.72,3.27149348 6.72,3.82821432 L6.72,7.72178568 C6.72,8.27387321 6.28073868,8.72142857 5.71188921,8.72142857 L4.36811079,8.72142857 C3.81134657,8.72142857 3.36,8.27850652 3.36,7.72178568 L3.36,3.82821432 Z M10.08,3.82821432 C10.08,3.27612679 10.5192613,2.82857143 11.0881108,2.82857143 L12.4318892,2.82857143 C12.9886534,2.82857143 13.44,3.27149348 13.44,3.82821432 L13.44,7.72178568 C13.44,8.27387321 13.0007387,8.72142857 12.4318892,8.72142857 L11.0881108,8.72142857 C10.5313466,8.72142857 10.08,8.27850652 10.08,7.72178568 L10.08,3.82821432 Z M16.8,3.82821432 C16.8,3.27612679 17.2392613,2.82857143 17.8081108,2.82857143 L19.1518892,2.82857143 C19.7086534,2.82857143 20.16,3.27149348 20.16,3.82821432 L20.16,7.72178568 C20.16,8.27387321 19.7207387,8.72142857 19.1518892,8.72142857 L17.8081108,8.72142857 C17.2513466,8.72142857 16.8,8.27850652 16.8,7.72178568 L16.8,3.82821432 Z M23.52,3.82821432 C23.52,3.27612679 23.9592613,2.82857143 24.5281108,2.82857143 L25.8718892,2.82857143 C26.4286534,2.82857143 26.88,3.27149348 26.88,3.82821432 L26.88,7.72178568 C26.88,8.27387321 26.4407387,8.72142857 25.8718892,8.72142857 L24.5281108,8.72142857 C23.9713466,8.72142857 23.52,8.27850652 23.52,7.72178568 L23.52,3.82821432 Z M30.24,3.82821432 C30.24,3.27612679 30.6792613,2.82857143 31.2481108,2.82857143 L32.5918892,2.82857143 C33.1486534,2.82857143 33.6,3.27149348 33.6,3.82821432 L33.6,7.72178568 C33.6,8.27387321 33.1607387,8.72142857 32.5918892,8.72142857 L31.2481108,8.72142857 C30.6913466,8.72142857 30.24,8.27850652 30.24,7.72178568 L30.24,3.82821432 Z M36.96,3.82821432 C36.96,3.27612679 37.3992613,2.82857143 37.9681108,2.82857143 L39.3118892,2.82857143 C39.8686534,2.82857143 40.32,3.27149348 40.32,3.82821432 L40.32,7.72178568 C40.32,8.27387321 39.8807387,8.72142857 39.3118892,8.72142857 L37.9681108,8.72142857 C37.4113466,8.72142857 36.96,8.27850652 36.96,7.72178568 L36.96,3.82821432 Z M43.68,3.82821432 C43.68,3.27612679 44.1192613,2.82857143 44.6881108,2.82857143 L46.0318892,2.82857143 C46.5886534,2.82857143 47.04,3.27149348 47.04,3.82821432 L47.04,7.72178568 C47.04,8.27387321 46.6007387,8.72142857 46.0318892,8.72142857 L44.6881108,8.72142857 C44.1313466,8.72142857 43.68,8.27850652 43.68,7.72178568 L43.68,3.82821432 Z M50.4,3.82821432 C50.4,3.27612679 50.8392613,2.82857143 51.4081108,2.82857143 L52.7518892,2.82857143 C53.3086534,2.82857143 53.76,3.27149348 53.76,3.82821432 L53.76,7.72178568 C53.76,8.27387321 53.3207387,8.72142857 52.7518892,8.72142857 L51.4081108,8.72142857 C50.8513466,8.72142857 50.4,8.27850652 50.4,7.72178568 L50.4,3.82821432 Z M57.12,3.82821432 C57.12,3.27612679 57.5592613,2.82857143 58.1281108,2.82857143 L59.4718892,2.82857143 C60.0286534,2.82857143 60.48,3.27149348 60.48,3.82821432 L60.48,7.72178568 C60.48,8.27387321 60.0407387,8.72142857 59.4718892,8.72142857 L58.1281108,8.72142857 C57.5713466,8.72142857 57.12,8.27850652 57.12,7.72178568 L57.12,3.82821432 Z M63.84,3.82821432 C63.84,3.27612679 64.2792613,2.82857143 64.8481108,2.82857143 L66.1918892,2.82857143 C66.7486534,2.82857143 67.2,3.27149348 67.2,3.82821432 L67.2,7.72178568 C67.2,8.27387321 66.7607387,8.72142857 66.1918892,8.72142857 L64.8481108,8.72142857 C64.2913466,8.72142857 63.84,8.27850652 63.84,7.72178568 L63.84,3.82821432 Z M70.56,3.82821432 C70.56,3.27612679 70.9992613,2.82857143 71.5681108,2.82857143 L72.9118892,2.82857143 C73.4686534,2.82857143 73.92,3.27149348 73.92,3.82821432 L73.92,7.72178568 C73.92,8.27387321 73.4807387,8.72142857 72.9118892,8.72142857 L71.5681108,8.72142857 C71.0113466,8.72142857 70.56,8.27850652 70.56,7.72178568 L70.56,3.82821432 Z M77.28,3.82821432 C77.28,3.27612679 77.7192613,2.82857143 78.2881108,2.82857143 L79.6318892,2.82857143 C80.1886534,2.82857143 80.64,3.27149348 80.64,3.82821432 L80.64,7.72178568 C80.64,8.27387321 80.2007387,8.72142857 79.6318892,8.72142857 L78.2881108,8.72142857 C77.7313466,8.72142857 77.28,8.27850652 77.28,7.72178568 L77.28,3.82821432 Z" id="Rectangle-12" fill="#FFFAFA" sketch:type="MSShapeGroup"></path>
                <path d="M1.68,56.1 L83.16,56.1 L83.16,64.35 L1.68,64.35 L1.68,56.1 Z M3.36,58.2782143 C3.36,57.7261268 3.79926132,57.2785714 4.36811079,57.2785714 L5.71188921,57.2785714 C6.26865343,57.2785714 6.72,57.7214935 6.72,58.2782143 L6.72,62.1717857 C6.72,62.7238732 6.28073868,63.1714286 5.71188921,63.1714286 L4.36811079,63.1714286 C3.81134657,63.1714286 3.36,62.7285065 3.36,62.1717857 L3.36,58.2782143 Z M10.08,58.2782143 C10.08,57.7261268 10.5192613,57.2785714 11.0881108,57.2785714 L12.4318892,57.2785714 C12.9886534,57.2785714 13.44,57.7214935 13.44,58.2782143 L13.44,62.1717857 C13.44,62.7238732 13.0007387,63.1714286 12.4318892,63.1714286 L11.0881108,63.1714286 C10.5313466,63.1714286 10.08,62.7285065 10.08,62.1717857 L10.08,58.2782143 Z M16.8,58.2782143 C16.8,57.7261268 17.2392613,57.2785714 17.8081108,57.2785714 L19.1518892,57.2785714 C19.7086534,57.2785714 20.16,57.7214935 20.16,58.2782143 L20.16,62.1717857 C20.16,62.7238732 19.7207387,63.1714286 19.1518892,63.1714286 L17.8081108,63.1714286 C17.2513466,63.1714286 16.8,62.7285065 16.8,62.1717857 L16.8,58.2782143 Z M23.52,58.2782143 C23.52,57.7261268 23.9592613,57.2785714 24.5281108,57.2785714 L25.8718892,57.2785714 C26.4286534,57.2785714 26.88,57.7214935 26.88,58.2782143 L26.88,62.1717857 C26.88,62.7238732 26.4407387,63.1714286 25.8718892,63.1714286 L24.5281108,63.1714286 C23.9713466,63.1714286 23.52,62.7285065 23.52,62.1717857 L23.52,58.2782143 Z M30.24,58.2782143 C30.24,57.7261268 30.6792613,57.2785714 31.2481108,57.2785714 L32.5918892,57.2785714 C33.1486534,57.2785714 33.6,57.7214935 33.6,58.2782143 L33.6,62.1717857 C33.6,62.7238732 33.1607387,63.1714286 32.5918892,63.1714286 L31.2481108,63.1714286 C30.6913466,63.1714286 30.24,62.7285065 30.24,62.1717857 L30.24,58.2782143 Z M36.96,58.2782143 C36.96,57.7261268 37.3992613,57.2785714 37.9681108,57.2785714 L39.3118892,57.2785714 C39.8686534,57.2785714 40.32,57.7214935 40.32,58.2782143 L40.32,62.1717857 C40.32,62.7238732 39.8807387,63.1714286 39.3118892,63.1714286 L37.9681108,63.1714286 C37.4113466,63.1714286 36.96,62.7285065 36.96,62.1717857 L36.96,58.2782143 Z M43.68,58.2782143 C43.68,57.7261268 44.1192613,57.2785714 44.6881108,57.2785714 L46.0318892,57.2785714 C46.5886534,57.2785714 47.04,57.7214935 47.04,58.2782143 L47.04,62.1717857 C47.04,62.7238732 46.6007387,63.1714286 46.0318892,63.1714286 L44.6881108,63.1714286 C44.1313466,63.1714286 43.68,62.7285065 43.68,62.1717857 L43.68,58.2782143 Z M50.4,58.2782143 C50.4,57.7261268 50.8392613,57.2785714 51.4081108,57.2785714 L52.7518892,57.2785714 C53.3086534,57.2785714 53.76,57.7214935 53.76,58.2782143 L53.76,62.1717857 C53.76,62.7238732 53.3207387,63.1714286 52.7518892,63.1714286 L51.4081108,63.1714286 C50.8513466,63.1714286 50.4,62.7285065 50.4,62.1717857 L50.4,58.2782143 Z M57.12,58.2782143 C57.12,57.7261268 57.5592613,57.2785714 58.1281108,57.2785714 L59.4718892,57.2785714 C60.0286534,57.2785714 60.48,57.7214935 60.48,58.2782143 L60.48,62.1717857 C60.48,62.7238732 60.0407387,63.1714286 59.4718892,63.1714286 L58.1281108,63.1714286 C57.5713466,63.1714286 57.12,62.7285065 57.12,62.1717857 L57.12,58.2782143 Z M63.84,58.2782143 C63.84,57.7261268 64.2792613,57.2785714 64.8481108,57.2785714 L66.1918892,57.2785714 C66.7486534,57.2785714 67.2,57.7214935 67.2,58.2782143 L67.2,62.1717857 C67.2,62.7238732 66.7607387,63.1714286 66.1918892,63.1714286 L64.8481108,63.1714286 C64.2913466,63.1714286 63.84,62.7285065 63.84,62.1717857 L63.84,58.2782143 Z M70.56,58.2782143 C70.56,57.7261268 70.9992613,57.2785714 71.5681108,57.2785714 L72.9118892,57.2785714 C73.4686534,57.2785714 73.92,57.7214935 73.92,58.2782143 L73.92,62.1717857 C73.92,62.7238732 73.4807387,63.1714286 72.9118892,63.1714286 L71.5681108,63.1714286 C71.0113466,63.1714286 70.56,62.7285065 70.56,62.1717857 L70.56,58.2782143 Z M77.28,58.2782143 C77.28,57.7261268 77.7192613,57.2785714 78.2881108,57.2785714 L79.6318892,57.2785714 C80.1886534,57.2785714 80.64,57.7214935 80.64,58.2782143 L80.64,62.1717857 C80.64,62.7238732 80.2007387,63.1714286 79.6318892,63.1714286 L78.2881108,63.1714286 C77.7313466,63.1714286 77.28,62.7285065 77.28,62.1717857 L77.28,58.2782143 Z" id="Rectangle-12-Copy" fill="#FFFAFA" sketch:type="MSShapeGroup"></path>
            </g>
            <g id="Oval-17-Copy-+-Oval-17-Copy-2-+-Path-23" sketch:type="MSLayerGroup" transform="translate(-2.000000, 38.000000)">
                <ellipse id="Oval-17-Copy" fill="#E0E0E0" sketch:type="MSShapeGroup" transform="translate(54.536890, 51.040919) rotate(-18.000000) translate(-54.536890, -51.040919) " cx="54.5368899" cy="51.0409193" rx="11.4607277" ry="7.88529338"></ellipse>
                <ellipse id="Oval-17-Copy-2" fill="#E0E0E0" sketch:type="MSShapeGroup" transform="translate(13.536890, 51.000000) rotate(-18.000000) translate(-13.536890, -51.000000) " cx="13.5368899" cy="51" rx="11.4607277" ry="7.88529338"></ellipse>
                <path d="M22,47.5157876 L22,0 L62,0 L62,50" id="Path-23" stroke="#E0E0E0" stroke-width="5" stroke-linejoin="round" sketch:type="MSShapeGroup"></path>
            </g>
        </g>
    </g>
</svg>