<?xml version="1.0" encoding="UTF-8" standalone="no"?>
<svg width="120px" height="120px" viewBox="0 0 120 120" version="1.1" xmlns="http://www.w3.org/2000/svg" xmlns:xlink="http://www.w3.org/1999/xlink" xmlns:sketch="http://www.bohemiancoding.com/sketch/ns">
    <!-- Generator: Sketch 3.3.3 (12081) - http://www.bohemiancoding.com/sketch -->
    <title>Artboard 1 Copy 3</title>
    <desc>Created with Sketch.</desc>
    <defs></defs>
    <g id="Page-1" stroke="none" stroke-width="1" fill="none" fill-rule="evenodd" sketch:type="MSPage">
        <g id="Artboard-1-Copy-3" sketch:type="MSArtboardGroup">
            <path d="M67.1260802,32 C68.2279322,32 68.8553282,32.8555976 68.527004,33.9123325 L68.4696034,34.0970804 C67.6514319,36.7304233 66.9881728,41.0946564 66.9881728,43.8602494 L66.9881728,50.1497813 C66.9881728,52.9084877 68.1513683,57.057312 69.5873241,59.4182175 L98.3061462,106.635847 C100.317811,109.943295 98.8221583,112.624512 94.9530513,112.624512 L23.2377164,112.624512 C19.3741889,112.624512 17.7350954,109.871513 19.5779651,106.473182 L45.0313605,59.5360257 C46.3464997,57.1108525 47.4126306,52.9153743 47.4126305,50.1497813 L47.4126303,43.8602494 C47.4126302,41.101543 46.877406,36.692987 46.2148776,34.0041463 L46.2012695,33.9489187 C45.9360557,32.8725606 46.6097951,32 47.7161369,32 L67.1260802,32 Z" id="Path-17" stroke="#E0E0E0" stroke-width="5" sketch:type="MSShapeGroup"></path>
            <circle id="Oval-3" fill="#E0E0E0" sketch:type="MSShapeGroup" cx="50.5" cy="10.5" r="3.5"></circle>
            <circle id="Oval-3-Copy" fill="#E0E0E0" sketch:type="MSShapeGroup" cx="61.5" cy="20.5" r="3.5"></circle>
            <circle id="Oval-3-Copy-2" fill="#E0E0E0" sketch:type="MSShapeGroup" cx="65.5" cy="5.5" r="3.5"></circle>
        </g>
    </g>
</svg>