<?xml version="1.0" encoding="utf-8"?>
<!-- Generator: Adobe Illustrator 20.1.0, SVG Export Plug-In . SVG Version: 6.00 Build 0)  -->
<svg version="1.1" id="Layer_1" xmlns="http://www.w3.org/2000/svg" xmlns:xlink="http://www.w3.org/1999/xlink" x="0px" y="0px"
	 viewBox="0 0 200 70" style="enable-background:new 0 0 200 70;" xml:space="preserve">
<style type="text/css">
	.Arched_x0020_Green{fill:url(#SVGID_1_);stroke:#FFFFFF;stroke-width:0.25;stroke-miterlimit:1;}
	.st0{fill:#231F20;}
	.st1{fill:#E03B3F;}
	.st2{fill:#FFFFFF;}
</style>
<linearGradient id="SVGID_1_" gradientUnits="userSpaceOnUse" x1="0" y1="216" x2="0.7071" y2="215.2929">
	<stop  offset="0" style="stop-color:#20AC4B"/>
	<stop  offset="0.9831" style="stop-color:#19361A"/>
</linearGradient>
<g>
	<path class="st0" d="M50.4,104.3l-3.4-2c-4.1-2.4-6.4-4.2-6.4-7.1c0-3.2,2.6-5.1,6.8-5.1c2.8,0,6.3,1.2,11,3.7l0.6,0.3l0-8.2
		c0,0-0.1-0.1-0.1-0.1c-4.1-2-7.9-2.9-12.1-2.9c-8.8,0-14.7,5.1-14.7,12.7c0,6.3,4.1,10,10.2,13.5l3.6,2.1c5.1,3,6.9,5.2,6.9,8.4
		c0,3.7-3.3,6.3-8.1,6.3c-3.8,0-7.9-1.5-13-4.7l-0.2-0.1v9.5c0,0,0.7,0.3,0.7,0.3c4,1.9,8.3,2.8,13,2.8c10,0,16.7-5.7,16.7-14.3
		C61.6,113.2,58.5,109,50.4,104.3z"/>
	<path class="st0" d="M111.4,84.1v48.5h8.6c0,0,0-21,0-21.3c0.2,0,19,0,19,0v-7.6c0,0-18.8,0-19,0c0-0.2,0-11.7,0-12
		c0.2,0,20,0,20,0v-7.7H111.4z"/>
	<path class="st0" d="M154.1,111c0.2,0,18.3,0,18.3,0v-7.6c0,0-18.1,0-18.3,0c0-0.2,0-11.4,0-11.6c0.2,0,19.8,0,19.8,0v-7.7h-28.3
		v48.5h28.6v-7.7c0,0-19.9,0-20.2,0C154.1,124.6,154.1,111.2,154.1,111z"/>
	<path class="st0" d="M308.9,84.1h-10.3c0,0-4.7,7.4-11,17.2c-0.4,0.7-0.8,1.3-1,1.9c0,0-0.1,0-0.1,0c-0.2-0.5-0.6-1.1-1-1.8
		c-6.7-10.5-11-17.2-11-17.2h-10.3c0,0,18,26.4,18,26.5c0,0.1,0,22,0,22h8.8c0,0,0-20.5,0-22.1C291.9,109.1,308.9,84.1,308.9,84.1z"
		/>
	<path class="st0" d="M252.8,82.5H252l-22.8,50.1h9.3l3.6-8.4h20.6l3.6,8.4h9.3L252.8,82.5 M245,117.1c0,0,4-9.7,6.6-15.7
		c0.4-1,0.7-2.4,0.7-2.4h0.1c0,0,0.3,1.3,0.7,2.4c2.7,6.3,6.6,15.7,6.6,15.7H245z"/>
	<path class="st0" d="M207.3,105.3c0.3-0.7,0.7-2.1,0.7-2.4h0.1c0,0.3,0.4,1.7,0.7,2.4c1.6,4,11.6,28.9,11.6,28.9h0.8l17.4-50.2
		h-9.1c0,0-6.5,20.5-8.6,27c-0.2,0.7-0.6,2.1-0.6,2.4h-0.1c0-0.3-0.4-1.7-0.7-2.4c-1.6-4.3-11-28.8-11-28.8h-0.7c0,0-9,23.5-11,28.7
		c-0.3,0.8-0.6,2.1-0.7,2.4h-0.1c0-0.3-0.4-1.7-0.6-2.4c-2.1-6.8-8.6-27-8.6-27h-9.1l17.4,50.2h0.8
		C195.7,134.3,205.4,110.1,207.3,105.3z"/>
	<path class="st0" d="M85.4,82.5h-0.8l-22.8,50.1h9.3l3.6-8.4h20.7l3.6,8.4h9.3L85.4,82.5 M77.7,117.1c0,0,4.1-9.7,6.6-15.7
		c0.4-1,0.7-2.4,0.7-2.4h0.1c0,0,0.3,1.4,0.7,2.4c2.7,6.3,6.6,15.7,6.6,15.7H77.7z"/>
	<path class="st1" d="M357.6,129.1c0-13.4-19.9-14.7-19.9-33.8c0-13.8,10.7-20.6,21.3-21.7c-1,0-2-0.1-3.4-0.1c-2.6,0-3.8,0.1-6,0.2
		c-19.9,1-30.5,11.6-31.1,28c-0.1,1.1-0.2,2.9-0.2,5.8l0,0c0,2.9,0.1,4.7,0.2,5.8c0.6,15.9,10.7,26.4,29.6,27.8
		C351,140.6,357.6,138.3,357.6,129.1z"/>
	<path class="st1" d="M392.7,101.8C392,86.3,382.5,75.9,364.6,74c-3.2,0.6-9.4,3.1-9.4,12c0,13.5,19.9,14.7,19.9,33.8
		c0,11.9-9,20.6-22.6,21.6c0.9,0,1.8,0,3,0c2.6,0,3.8-0.1,6-0.2c19.9-1,30.5-11.6,31.2-28c0-1.1,0.1-2.9,0.1-5.8l0,0
		C392.8,104.6,392.7,102.8,392.7,101.8z"/>
	<path class="st2" d="M375.1,119.8c0-19.1-19.9-20.3-19.9-33.8c0-8.9,6.3-11.3,9.4-12c-1-0.1-2-0.2-3.1-0.2c-1,0-1.8-0.1-2.6-0.1
		c-10.6,1.1-21.3,8-21.3,21.7c0,19.1,19.9,20.3,19.9,33.8c0,9.2-6.6,11.4-9.6,12c0.5,0,1,0.1,1.6,0.1c1.2,0.1,2,0.1,3,0.1
		C366.1,140.4,375.1,131.7,375.1,119.8z"/>
	<path class="st0" d="M394.2,137.7h-1.3v-0.5h3.3v0.5h-1.3v3.8h-0.6V137.7z M396.8,137.2h1.1l1.2,3.3l1.3-3.3h1.1v4.3h-0.7v-3.7h0
		l-1.4,3.7h-0.4l-1.4-3.7h0v3.7h-0.7V137.2z"/>
</g>
</svg>
