<?xml version="1.0" encoding="UTF-8" standalone="no"?>
<svg width="371px" height="70px" viewBox="0 0 371 70" version="1.1" xmlns="http://www.w3.org/2000/svg" xmlns:xlink="http://www.w3.org/1999/xlink" xmlns:sketch="http://www.bohemiancoding.com/sketch/ns">
    <!-- Generator: Sketch 3.3.3 (12081) - http://www.bohemiancoding.com/sketch -->
    <title>Safeway</title>
    <desc>Created with Sketch.</desc>
    <defs></defs>
    <g id="Page-1" stroke="none" stroke-width="1" fill="none" fill-rule="evenodd" sketch:type="MSPage">
        <g id="Safeway" sketch:type="MSLayerGroup">
            <g id="Group" sketch:type="MSShapeGroup">
                <path d="M19.4,31.7536232 L16,29.7246377 C11.9,27.2898551 9.6,25.4637681 9.6,22.5217391 C9.6,19.2753623 12.2,17.3478261 16.4,17.3478261 C19.2,17.3478261 22.7,18.5652174 27.4,21.1014493 L28,21.4057971 L28,13.0869565 L27.9,12.9855072 C23.8,10.9565217 20,10.0434783 15.8,10.0434783 C7,10.0434783 1.1,15.2173913 1.1,22.9275362 C1.1,29.3188406 5.2,33.0724638 11.3,36.6231884 L14.9,38.7536232 C20,41.7971014 21.8,44.0289855 21.8,47.2753623 C21.8,51.0289855 18.5,53.6666667 13.7,53.6666667 C9.9,53.6666667 5.8,52.1449275 0.7,48.8985507 L0.5,48.7971014 L0.5,58.4347826 L1.2,58.7391304 C5.2,60.6666667 9.5,61.5797101 14.2,61.5797101 C24.2,61.5797101 30.9,55.7971014 30.9,47.0724638 C30.6,40.7826087 27.5,36.5217391 19.4,31.7536232 L19.4,31.7536232 Z" id="Shape" fill="#231F20"></path>
                <path d="M80.4,11.2608696 L80.4,60.4637681 L89,60.4637681 L89,38.8550725 L108,38.8550725 L108,31.1449275 L89,31.1449275 L89,18.9710145 L109,18.9710145 L109,11.1594203 L80.4,11.1594203 L80.4,11.2608696 Z" id="Shape" fill="#231F20"></path>
                <path d="M123.1,38.5507246 L141.4,38.5507246 L141.4,30.8405797 L123.1,30.8405797 L123.1,19.0724638 L142.9,19.0724638 L142.9,11.2608696 L114.6,11.2608696 L114.6,60.4637681 L143.2,60.4637681 L143.2,52.6521739 L123,52.6521739 C123.1,52.3478261 123.1,38.7536232 123.1,38.5507246 L123.1,38.5507246 Z" id="Shape" fill="#231F20"></path>
                <path d="M277.9,11.2608696 L267.6,11.2608696 C267.6,11.2608696 262.9,18.7681159 256.6,28.7101449 C256.2,29.4202899 255.8,30.0289855 255.6,30.6376812 L255.5,30.6376812 C255.3,30.1304348 254.9,29.5217391 254.5,28.8115942 C247.8,18.1594203 243.5,11.3623188 243.5,11.3623188 L233.2,11.3623188 C233.2,11.3623188 251.2,38.1449275 251.2,38.2463768 L251.2,60.5652174 L260,60.5652174 L260,38.1449275 C260.9,36.6231884 277.9,11.2608696 277.9,11.2608696 L277.9,11.2608696 Z" id="Shape" fill="#231F20"></path>
                <path d="M221.8,9.63768116 L221,9.63768116 L198.2,60.4637681 L207.5,60.4637681 L211.1,51.942029 L231.7,51.942029 L235.3,60.4637681 L244.6,60.4637681 L221.8,9.63768116 L221.8,9.63768116 Z M214,44.7391304 C214,44.7391304 218,34.8985507 220.6,28.8115942 C221,27.7971014 221.3,26.3768116 221.3,26.3768116 L221.4,26.3768116 C221.4,26.3768116 221.7,27.6956522 222.1,28.8115942 C224.8,35.2028986 228.7,44.7391304 228.7,44.7391304 L214,44.7391304 L214,44.7391304 Z" id="Shape" fill="#231F20"></path>
                <path d="M176.3,32.7681159 C176.6,32.057971 177,30.6376812 177,30.3333333 L177.1,30.3333333 C177.1,30.6376812 177.5,32.057971 177.8,32.7681159 C179.4,36.826087 189.4,62.0869565 189.4,62.0869565 L190.2,62.0869565 L207.6,11.1594203 L198.5,11.1594203 C198.5,11.1594203 192,31.9565217 189.9,38.5507246 C189.7,39.2608696 189.3,40.6811594 189.3,40.9855072 L189.2,40.9855072 C189.2,40.6811594 188.8,39.2608696 188.5,38.5507246 C186.9,34.1884058 177.5,9.33333333 177.5,9.33333333 L176.8,9.33333333 C176.8,9.33333333 167.8,33.173913 165.8,38.4492754 C165.5,39.2608696 165.2,40.5797101 165.1,40.884058 L165,40.884058 C165,40.5797101 164.6,39.1594203 164.4,38.4492754 C162.3,31.5507246 155.8,11.057971 155.8,11.057971 L146.7,11.057971 L164.1,61.9855072 L164.9,61.9855072 C164.7,62.1884058 174.4,37.6376812 176.3,32.7681159 L176.3,32.7681159 Z" id="Shape" fill="#231F20"></path>
                <path d="M54.4,9.63768116 L53.6,9.63768116 L30.8,60.4637681 L40.1,60.4637681 L43.7,51.942029 L64.4,51.942029 L68,60.4637681 L77.3,60.4637681 L54.4,9.63768116 L54.4,9.63768116 Z M46.7,44.7391304 C46.7,44.7391304 50.8,34.8985507 53.3,28.8115942 C53.7,27.7971014 54,26.3768116 54,26.3768116 L54.1,26.3768116 C54.1,26.3768116 54.4,27.7971014 54.8,28.8115942 C57.5,35.2028986 61.4,44.7391304 61.4,44.7391304 L46.7,44.7391304 L46.7,44.7391304 Z" id="Shape" fill="#231F20"></path>
                <path d="M326.6,56.9130435 C326.6,43.3188406 306.7,42 306.7,22.6231884 C306.7,8.62318841 317.4,1.72463768 328,0.608695652 C327,0.608695652 326,0.507246377 324.6,0.507246377 C322,0.507246377 320.8,0.608695652 318.6,0.710144928 C298.7,1.72463768 288.1,12.4782609 287.5,29.115942 C287.4,30.2318841 287.3,32.057971 287.3,35 L287.3,35 C287.3,37.942029 287.4,39.7681159 287.5,40.884058 C288.1,57.0144928 298.2,67.6666667 317.1,69.0869565 C320,68.5797101 326.6,66.2463768 326.6,56.9130435 L326.6,56.9130435 Z" id="Shape" fill="#E03B3F"></path>
                <path d="M361.7,29.2173913 C361,13.4927536 351.5,2.94202899 333.6,1.01449275 C330.4,1.62318841 324.2,4.15942029 324.2,13.1884058 C324.2,26.884058 344.1,28.1014493 344.1,47.4782609 C344.1,59.5507246 335.1,68.3768116 321.5,69.3913043 L324.5,69.3913043 C327.1,69.3913043 328.3,69.2898551 330.5,69.1884058 C350.4,68.173913 361,57.4202899 361.7,40.7826087 C361.7,39.6666667 361.8,37.8405797 361.8,34.8985507 L361.8,34.8985507 C361.8,32.057971 361.7,30.2318841 361.7,29.2173913 L361.7,29.2173913 Z" id="Shape" fill="#E03B3F"></path>
                <path d="M344.1,47.4782609 C344.1,28.1014493 324.2,26.884058 324.2,13.1884058 C324.2,4.15942029 330.5,1.72463768 333.6,1.01449275 C332.6,0.913043478 331.6,0.811594203 330.5,0.811594203 C329.5,0.811594203 328.7,0.710144928 327.9,0.710144928 C317.3,1.82608696 306.6,8.82608696 306.6,22.7246377 C306.6,42.1014493 326.5,43.3188406 326.5,57.0144928 C326.5,66.3478261 319.9,68.5797101 316.9,69.1884058 C317.4,69.1884058 317.9,69.2898551 318.5,69.2898551 C319.7,69.3913043 320.5,69.3913043 321.5,69.3913043 C335.1,68.3768116 344.1,59.5507246 344.1,47.4782609 L344.1,47.4782609 Z" id="Shape" fill="#FFFFFF"></path>
                <path d="M363.2,65.6376812 L361.9,65.6376812 L361.9,65.1304348 L365.2,65.1304348 L365.2,65.6376812 L363.9,65.6376812 L363.9,69.4927536 L363.3,69.4927536 L363.3,65.6376812 L363.2,65.6376812 Z M365.8,65.1304348 L366.9,65.1304348 L368.1,68.4782609 L369.4,65.1304348 L370.5,65.1304348 L370.5,69.4927536 L369.8,69.4927536 L369.8,65.7391304 L368.4,69.4927536 L368,69.4927536 L366.6,65.7391304 L366.6,69.4927536 L365.9,69.4927536 L365.9,65.1304348 L365.8,65.1304348 Z" id="Shape" fill="#231F20"></path>
            </g>
        </g>
    </g>
</svg>